<svg width="63" height="63" viewBox="0 0 63 63" fill="none" xmlns="http://www.w3.org/2000/svg">
<path d="M21 44.625L31.5 55.125L42 44.625" stroke="#222133" stroke-width="2" stroke-linecap="round" stroke-linejoin="round"/>
<path d="M31.5 31.5V55.125" stroke="#222133" stroke-width="2" stroke-linecap="round" stroke-linejoin="round"/>
<path d="M54.81 47.4863C57.0922 45.8814 58.8036 43.5912 59.6959 40.9478C60.5882 38.3044 60.6149 35.4454 59.7723 32.7858C58.9296 30.1262 57.2614 27.8042 55.0097 26.157C52.758 24.5097 50.0399 23.6228 47.25 23.625H43.9425C43.153 20.5482 41.6758 17.6905 39.6221 15.2672C37.5683 12.8439 34.9916 10.9181 32.0859 9.63469C29.1802 8.35131 26.0212 7.74383 22.8468 7.85799C19.6723 7.97215 16.5651 8.80497 13.7591 10.2938C10.9531 11.7825 8.52134 13.8885 6.64699 16.4531C4.77264 19.0176 3.50451 21.974 2.93806 25.0996C2.37161 28.2252 2.5216 31.4386 3.37675 34.4978C4.23189 37.5571 5.7699 40.3824 7.875 42.7613" stroke="#222133" stroke-width="2" stroke-linecap="round" stroke-linejoin="round"/>
</svg>
