<svg width="128" height="38" viewBox="0 0 128 38" fill="none" xmlns="http://www.w3.org/2000/svg">
<rect x="-0.757324" y="23.2428" width="28" height="4" rx="2" transform="rotate(-45 -0.757324 23.2428)" fill="#3A57E8"/>
<rect x="7.72791" y="31.728" width="28" height="4" rx="2" transform="rotate(-45 7.72791 31.728)" fill="#3A57E8"/>
<rect x="10.5365" y="20.3945" width="16" height="4" rx="2" transform="rotate(45 10.5365 20.3945)" fill="#3A57E8"/>
<rect x="10.5564" y="3.44373" width="28" height="4" rx="2" transform="rotate(45 10.5564 3.44373)" fill="#3A57E8"/>
<path d="M53.7301 15H50.1985V4.09091H53.842C54.9109 4.09091 55.8288 4.3093 56.5959 4.74609C57.3629 5.17933 57.9506 5.80256 58.359 6.61577C58.771 7.42543 58.9769 8.39666 58.9769 9.52947C58.9769 10.6658 58.7692 11.6424 58.3537 12.4592C57.9418 13.2759 57.3452 13.9045 56.5639 14.3448C55.7827 14.7816 54.8381 15 53.7301 15ZM51.8445 13.5618H53.6396C54.4705 13.5618 55.1612 13.4055 55.7116 13.093C56.2621 12.777 56.674 12.3207 56.9474 11.7241C57.2209 11.1239 57.3576 10.3924 57.3576 9.52947C57.3576 8.67365 57.2209 7.94744 56.9474 7.35085C56.6776 6.75426 56.2745 6.30149 55.7383 5.99254C55.2021 5.68359 54.5362 5.52912 53.7408 5.52912H51.8445V13.5618ZM63.2769 15.1811C62.7584 15.1811 62.2897 15.0852 61.8706 14.8935C61.4516 14.6982 61.1196 14.4158 60.8746 14.0465C60.6331 13.6772 60.5123 13.2244 60.5123 12.6882C60.5123 12.2266 60.6011 11.8466 60.7787 11.5483C60.9562 11.25 61.1959 11.0138 61.4978 10.8398C61.7996 10.6658 62.137 10.5344 62.5099 10.4457C62.8827 10.3569 63.2627 10.2894 63.6498 10.2433C64.1398 10.1864 64.5376 10.1403 64.843 10.1048C65.1483 10.0657 65.3703 10.0036 65.5088 9.91832C65.6473 9.8331 65.7165 9.6946 65.7165 9.50284V9.46555C65.7165 9.00035 65.5851 8.63991 65.3224 8.38423C65.0631 8.12855 64.676 8.00071 64.1611 8.00071C63.6249 8.00071 63.2023 8.11967 62.8934 8.3576C62.588 8.59197 62.3767 8.85298 62.2595 9.14062L60.7627 8.79972C60.9403 8.30256 61.1995 7.90128 61.5404 7.59588C61.8849 7.28693 62.2808 7.06321 62.7282 6.92472C63.1757 6.78267 63.6462 6.71165 64.1398 6.71165C64.4665 6.71165 64.8128 6.75071 65.1785 6.82884C65.5479 6.90341 65.8923 7.0419 66.2119 7.24432C66.5351 7.44673 66.7996 7.73615 67.0056 8.11257C67.2116 8.48544 67.3145 8.97017 67.3145 9.56676V15H65.7591V13.8814H65.6952C65.5922 14.0874 65.4378 14.2898 65.2318 14.4886C65.0258 14.6875 64.7613 14.8526 64.4381 14.984C64.115 15.1154 63.7279 15.1811 63.2769 15.1811ZM63.6231 13.9027C64.0635 13.9027 64.4399 13.8157 64.7524 13.6417C65.0684 13.4677 65.3082 13.2404 65.4715 12.9599C65.6384 12.6758 65.7219 12.3722 65.7219 12.049V10.9943C65.665 11.0511 65.555 11.1044 65.3916 11.1541C65.2318 11.2003 65.0489 11.2411 64.843 11.2766C64.637 11.3086 64.4363 11.3388 64.241 11.3672C64.0457 11.392 63.8824 11.4134 63.751 11.4311C63.442 11.4702 63.1597 11.5359 62.904 11.6282C62.6519 11.7205 62.4495 11.8537 62.2968 12.0277C62.1476 12.1982 62.0731 12.4254 62.0731 12.7095C62.0731 13.1037 62.2187 13.402 62.5099 13.6044C62.801 13.8033 63.1721 13.9027 63.6231 13.9027ZM75.5669 8.8157L74.1234 9.07138C74.063 8.88672 73.9672 8.71094 73.8358 8.54403C73.7079 8.37713 73.5339 8.24041 73.3137 8.13388C73.0936 8.02734 72.8184 7.97408 72.4881 7.97408C72.0371 7.97408 71.6607 8.07528 71.3588 8.2777C71.057 8.47656 70.9061 8.73402 70.9061 9.05007C70.9061 9.32351 71.0073 9.54368 71.2097 9.71058C71.4121 9.87749 71.7388 10.0142 72.1898 10.1207L73.4895 10.419C74.2424 10.593 74.8034 10.8612 75.1728 11.2234C75.5421 11.5856 75.7267 12.0561 75.7267 12.6349C75.7267 13.125 75.5847 13.5618 75.3006 13.9453C75.0201 14.3253 74.6277 14.6236 74.1234 14.8402C73.6227 15.0568 73.0421 15.1651 72.3816 15.1651C71.4654 15.1651 70.7179 14.9698 70.139 14.5792C69.5602 14.185 69.2051 13.6257 69.0737 12.9013L70.6131 12.6669C70.709 13.0682 70.9061 13.3718 71.2044 13.5778C71.5027 13.7802 71.8915 13.8814 72.3709 13.8814C72.8929 13.8814 73.3102 13.7731 73.6227 13.5565C73.9352 13.3363 74.0914 13.0682 74.0914 12.7521C74.0914 12.4964 73.9956 12.2816 73.8038 12.1076C73.6156 11.9336 73.3262 11.8022 72.9355 11.7134L71.5506 11.4098C70.7871 11.2358 70.2225 10.9588 69.8567 10.5788C69.4945 10.1989 69.3134 9.71768 69.3134 9.1353C69.3134 8.65234 69.4483 8.22976 69.7182 7.86754C69.9881 7.50533 70.361 7.22301 70.8368 7.0206C71.3127 6.81463 71.8578 6.71165 72.4721 6.71165C73.3564 6.71165 74.0524 6.90341 74.5602 7.28693C75.068 7.6669 75.4036 8.17649 75.5669 8.8157ZM79.0706 10.142V15H77.4779V4.09091H79.0493V8.14986H79.1505C79.3422 7.70952 79.6352 7.35973 80.0294 7.1005C80.4236 6.84126 80.9385 6.71165 81.5741 6.71165C82.1352 6.71165 82.6253 6.82706 83.0443 7.05788C83.4669 7.28871 83.7936 7.63317 84.0244 8.09126C84.2588 8.54581 84.376 9.11399 84.376 9.79581V15H82.7833V9.98757C82.7833 9.38743 82.6288 8.92223 82.3199 8.59197C82.0109 8.25817 81.5812 8.09126 81.0308 8.09126C80.6544 8.09126 80.317 8.17116 80.0187 8.33097C79.724 8.49077 79.4914 8.72514 79.3209 9.03409C79.154 9.33949 79.0706 9.70881 79.0706 10.142ZM86.6292 15V4.09091H88.2219V8.14453H88.3177C88.4101 7.97408 88.5432 7.77699 88.7172 7.55327C88.8912 7.32955 89.1327 7.13423 89.4417 6.96733C89.7506 6.79688 90.159 6.71165 90.6668 6.71165C91.3273 6.71165 91.9168 6.87855 92.4353 7.21236C92.9537 7.54616 93.3604 8.02734 93.6551 8.65589C93.9534 9.28445 94.1025 10.0408 94.1025 10.9251C94.1025 11.8093 93.9552 12.5675 93.6604 13.1996C93.3657 13.8281 92.9608 14.3129 92.4459 14.6538C91.931 14.9911 91.3433 15.1598 90.6828 15.1598C90.1856 15.1598 89.779 15.0763 89.463 14.9094C89.1505 14.7425 88.9055 14.5472 88.7279 14.3235C88.5503 14.0998 88.4136 13.9009 88.3177 13.7269H88.1846V15H86.6292ZM88.1899 10.9091C88.1899 11.4844 88.2733 11.9886 88.4403 12.4219C88.6072 12.8551 88.8486 13.1942 89.1647 13.4393C89.4807 13.6808 89.8678 13.8015 90.3259 13.8015C90.8018 13.8015 91.1995 13.6754 91.5191 13.4233C91.8387 13.1676 92.0802 12.8214 92.2435 12.3846C92.4104 11.9478 92.4939 11.456 92.4939 10.9091C92.4939 10.3693 92.4122 9.88459 92.2488 9.4549C92.089 9.02521 91.8476 8.68608 91.5244 8.4375C91.2048 8.18892 90.8053 8.06463 90.3259 8.06463C89.8643 8.06463 89.4736 8.18359 89.154 8.42152C88.838 8.65945 88.5983 8.99148 88.4349 9.41761C88.2716 9.84375 88.1899 10.3409 88.1899 10.9091ZM99.3374 15.1651C98.5703 15.1651 97.9009 14.9893 97.3292 14.6378C96.7575 14.2862 96.3136 13.7944 95.9975 13.1623C95.6815 12.5302 95.5234 11.7915 95.5234 10.9464C95.5234 10.0977 95.6815 9.35547 95.9975 8.71982C96.3136 8.08416 96.7575 7.59055 97.3292 7.23899C97.9009 6.88743 98.5703 6.71165 99.3374 6.71165C100.104 6.71165 100.774 6.88743 101.346 7.23899C101.917 7.59055 102.361 8.08416 102.677 8.71982C102.993 9.35547 103.151 10.0977 103.151 10.9464C103.151 11.7915 102.993 12.5302 102.677 13.1623C102.361 13.7944 101.917 14.2862 101.346 14.6378C100.774 14.9893 100.104 15.1651 99.3374 15.1651ZM99.3427 13.8281C99.8398 13.8281 100.252 13.6967 100.578 13.4339C100.905 13.1712 101.147 12.8214 101.303 12.3846C101.463 11.9478 101.543 11.4666 101.543 10.9411C101.543 10.419 101.463 9.93963 101.303 9.50284C101.147 9.0625 100.905 8.70916 100.578 8.44283C100.252 8.17649 99.8398 8.04332 99.3427 8.04332C98.842 8.04332 98.4265 8.17649 98.0962 8.44283C97.7695 8.70916 97.5263 9.0625 97.3665 9.50284C97.2102 9.93963 97.1321 10.419 97.1321 10.9411C97.1321 11.4666 97.2102 11.9478 97.3665 12.3846C97.5263 12.8214 97.7695 13.1712 98.0962 13.4339C98.4265 13.6967 98.842 13.8281 99.3427 13.8281ZM107.31 15.1811C106.792 15.1811 106.323 15.0852 105.904 14.8935C105.485 14.6982 105.153 14.4158 104.908 14.0465C104.666 13.6772 104.546 13.2244 104.546 12.6882C104.546 12.2266 104.634 11.8466 104.812 11.5483C104.989 11.25 105.229 11.0138 105.531 10.8398C105.833 10.6658 106.17 10.5344 106.543 10.4457C106.916 10.3569 107.296 10.2894 107.683 10.2433C108.173 10.1864 108.571 10.1403 108.876 10.1048C109.182 10.0657 109.403 10.0036 109.542 9.91832C109.68 9.8331 109.75 9.6946 109.75 9.50284V9.46555C109.75 9.00035 109.618 8.63991 109.356 8.38423C109.096 8.12855 108.709 8.00071 108.194 8.00071C107.658 8.00071 107.236 8.11967 106.927 8.3576C106.621 8.59197 106.41 8.85298 106.293 9.14062L104.796 8.79972C104.973 8.30256 105.233 7.90128 105.574 7.59588C105.918 7.28693 106.314 7.06321 106.761 6.92472C107.209 6.78267 107.679 6.71165 108.173 6.71165C108.5 6.71165 108.846 6.75071 109.212 6.82884C109.581 6.90341 109.926 7.0419 110.245 7.24432C110.568 7.44673 110.833 7.73615 111.039 8.11257C111.245 8.48544 111.348 8.97017 111.348 9.56676V15H109.792V13.8814H109.728C109.625 14.0874 109.471 14.2898 109.265 14.4886C109.059 14.6875 108.794 14.8526 108.471 14.984C108.148 15.1154 107.761 15.1811 107.31 15.1811ZM107.656 13.9027C108.097 13.9027 108.473 13.8157 108.786 13.6417C109.102 13.4677 109.341 13.2404 109.505 12.9599C109.672 12.6758 109.755 12.3722 109.755 12.049V10.9943C109.698 11.0511 109.588 11.1044 109.425 11.1541C109.265 11.2003 109.082 11.2411 108.876 11.2766C108.67 11.3086 108.47 11.3388 108.274 11.3672C108.079 11.392 107.916 11.4134 107.784 11.4311C107.475 11.4702 107.193 11.5359 106.937 11.6282C106.685 11.7205 106.483 11.8537 106.33 12.0277C106.181 12.1982 106.106 12.4254 106.106 12.7095C106.106 13.1037 106.252 13.402 106.543 13.6044C106.834 13.8033 107.205 13.9027 107.656 13.9027ZM113.469 15V6.81818H115.009V8.1179H115.094C115.243 7.67756 115.506 7.33132 115.882 7.07919C116.262 6.82351 116.692 6.69567 117.171 6.69567C117.271 6.69567 117.388 6.69922 117.523 6.70632C117.661 6.71342 117.77 6.7223 117.848 6.73295V8.25639C117.784 8.23864 117.67 8.21911 117.507 8.1978C117.343 8.17294 117.18 8.16051 117.017 8.16051C116.64 8.16051 116.305 8.24041 116.01 8.40021C115.719 8.55646 115.488 8.77486 115.317 9.0554C115.147 9.33239 115.062 9.64844 115.062 10.0036V15H113.469ZM121.996 15.1598C121.335 15.1598 120.746 14.9911 120.227 14.6538C119.712 14.3129 119.308 13.8281 119.013 13.1996C118.722 12.5675 118.576 11.8093 118.576 10.9251C118.576 10.0408 118.723 9.28445 119.018 8.65589C119.316 8.02734 119.725 7.54616 120.243 7.21236C120.762 6.87855 121.35 6.71165 122.006 6.71165C122.514 6.71165 122.923 6.79688 123.232 6.96733C123.544 7.13423 123.786 7.32955 123.956 7.55327C124.13 7.77699 124.265 7.97408 124.361 8.14453H124.457V4.09091H126.049V15H124.494V13.7269H124.361C124.265 13.9009 124.127 14.0998 123.945 14.3235C123.768 14.5472 123.523 14.7425 123.21 14.9094C122.898 15.0763 122.493 15.1598 121.996 15.1598ZM122.347 13.8015C122.805 13.8015 123.193 13.6808 123.509 13.4393C123.828 13.1942 124.07 12.8551 124.233 12.4219C124.4 11.9886 124.483 11.4844 124.483 10.9091C124.483 10.3409 124.402 9.84375 124.238 9.41761C124.075 8.99148 123.835 8.65945 123.519 8.42152C123.203 8.18359 122.813 8.06463 122.347 8.06463C121.868 8.06463 121.468 8.18892 121.149 8.4375C120.829 8.68608 120.588 9.02521 120.424 9.4549C120.265 9.88459 120.185 10.3693 120.185 10.9091C120.185 11.456 120.266 11.9478 120.43 12.3846C120.593 12.8214 120.835 13.1676 121.154 13.4233C121.477 13.6754 121.875 13.8015 122.347 13.8015ZM50.1985 34V23.0909H51.8445V32.5831H56.7876V34H50.1985ZM58.6653 34V23.0909H60.3113V32.5831H65.2544V34H58.6653ZM70.6637 34H67.1321V23.0909H70.7756C71.8445 23.0909 72.7624 23.3093 73.5295 23.7461C74.2965 24.1793 74.8842 24.8026 75.2926 25.6158C75.7045 26.4254 75.9105 27.3967 75.9105 28.5295C75.9105 29.6658 75.7028 30.6424 75.2873 31.4592C74.8754 32.2759 74.2788 32.9045 73.4975 33.3448C72.7163 33.7816 71.7717 34 70.6637 34ZM68.7781 32.5618H70.5732C71.4041 32.5618 72.0948 32.4055 72.6452 32.093C73.1957 31.777 73.6076 31.3207 73.881 30.7241C74.1545 30.1239 74.2912 29.3924 74.2912 28.5295C74.2912 27.6737 74.1545 26.9474 73.881 26.3509C73.6112 25.7543 73.2081 25.3015 72.6719 24.9925C72.1357 24.6836 71.4698 24.5291 70.6744 24.5291H68.7781V32.5618ZM79.6032 23.0909V34H77.9573V23.0909H79.6032ZM82.0003 34V23.0909H83.6462V28.3004H83.7794L88.355 23.0909H90.4271L86.0273 28.0021L90.4431 34H88.4616L84.9353 29.1261L83.6462 30.6069V34H82.0003ZM91.4232 24.5078V23.0909H99.866V24.5078H96.4623V34H94.8216V24.5078H91.4232ZM103.378 23.0909V34H101.732V23.0909H103.378ZM111.39 23.0909V34H109.744V23.0909H111.39ZM115.433 23.0909V34H113.787V23.0909H115.433ZM119.476 23.0909V34H117.83V23.0909H119.476Z" fill="#232D42"/>
</svg>
