<svg width="63" height="63" viewBox="0 0 63 63" fill="none" xmlns="http://www.w3.org/2000/svg">
<path d="M42 42L31.5 31.5L21 42" stroke="#222133" stroke-width="2" stroke-linecap="round" stroke-linejoin="round"/>
<path d="M31.5 31.5V55.125" stroke="#222133" stroke-width="2" stroke-linecap="round" stroke-linejoin="round"/>
<path d="M53.5238 48.2737C56.084 46.878 58.1066 44.6693 59.2722 41.9964C60.4378 39.3235 60.6801 36.3385 59.9608 33.5125C59.2415 30.6866 57.6017 28.1807 55.3 26.3903C52.9984 24.5999 50.166 23.6269 47.25 23.625H43.9425C43.148 20.5517 41.667 17.6986 39.6111 15.2801C37.5552 12.8616 34.9777 10.9406 32.0725 9.66158C29.1673 8.38257 26.0099 7.77881 22.8378 7.89568C19.6657 8.01255 16.5613 8.84703 13.7581 10.3364C10.9549 11.8257 8.52577 13.9311 6.65338 16.4944C4.781 19.0576 3.51406 22.012 2.94782 25.1354C2.38159 28.2588 2.53078 31.4699 3.38419 34.5273C4.2376 37.5847 5.77301 40.4089 7.875 42.7875" stroke="#222133" stroke-width="2" stroke-linecap="round" stroke-linejoin="round"/>
<path d="M42 42L31.5 31.5L21 42" stroke="#222133" stroke-width="2" stroke-linecap="round" stroke-linejoin="round"/>
</svg>
